<svg width="16" height="16" viewBox="0 0 16 16" fill="none" xmlns="http://www.w3.org/2000/svg">
<path d="M3.33333 6.66667C3.33333 6.29867 3.632 6 4 6H6V4C6 3.632 6.29867 3.33333 6.66667 3.33333C7.03467 3.33333 7.33333 3.632 7.33333 4V6H9.33333C9.70133 6 10 6.29867 10 6.66667C10 7.03467 9.70133 7.33333 9.33333 7.33333H7.33333V9.33333C7.33333 9.70133 7.03467 10 6.66667 10C6.29867 10 6 9.70133 6 9.33333V7.33333H4C3.632 7.33333 3.33333 7.03467 3.33333 6.66667ZM16 6V12.6667C16 14.5047 14.5047 16 12.6667 16H6C4.36933 16 3.014 14.8213 2.728 13.272C1.17867 12.986 0 11.6307 0 10V3.33333C0 1.49533 1.49533 0 3.33333 0H10C11.6307 0 12.986 1.17867 13.272 2.728C14.8213 3.014 16 4.36933 16 6ZM3.33333 12H10C11.1027 12 12 11.1027 12 10V3.33333C12 2.23067 11.1027 1.33333 10 1.33333H3.33333C2.23067 1.33333 1.33333 2.23067 1.33333 3.33333V10C1.33333 11.1027 2.23067 12 3.33333 12ZM14.6667 6C14.6667 5.132 14.1073 4.39867 13.3333 4.12267V10C13.3333 11.838 11.838 13.3333 10 13.3333H4.12267C4.39867 14.1073 5.132 14.6667 6 14.6667H12.6667C13.7693 14.6667 14.6667 13.7693 14.6667 12.6667V6Z" fill="#18181B"/>
</svg>
