<svg width="16" height="16" viewBox="0 0 16 16" fill="none" xmlns="http://www.w3.org/2000/svg">
<g clip-path="url(#clip0_15_669)">
<path d="M16 7.49799C15.9036 5.93801 15.3528 4.44034 14.4155 3.18961C13.4782 1.93889 12.1954 0.98979 10.7252 0.459324C9.25497 -0.0711409 7.66169 -0.159783 6.14173 0.204325C4.62177 0.568433 3.24158 1.36937 2.17132 2.50841C1.10106 3.64744 0.387514 5.07477 0.118648 6.61443C-0.150218 8.1541 0.037351 9.73879 0.658231 11.1731C1.27911 12.6075 2.30616 13.8288 3.61276 14.6865C4.91936 15.5442 6.44839 16.0008 8.01135 16H12.6667C13.5505 15.9991 14.3978 15.6476 15.0227 15.0227C15.6477 14.3978 15.9991 13.5504 16 12.6667V7.49799ZM14.6667 12.6667C14.6667 13.1971 14.456 13.7058 14.0809 14.0809C13.7058 14.4559 13.1971 14.6667 12.6667 14.6667H8.01135C7.07064 14.6662 6.14058 14.4675 5.28182 14.0835C4.42305 13.6995 3.65487 13.1388 3.02735 12.438C2.3968 11.7375 1.92331 10.9103 1.63862 10.0119C1.35392 9.1134 1.26462 8.16446 1.37669 7.22866C1.55364 5.75262 2.21681 4.37745 3.26165 3.31994C4.30648 2.26243 5.67356 1.58273 7.14735 1.38799C7.43484 1.35196 7.72428 1.3337 8.01402 1.33333C9.56767 1.32909 11.0732 1.87193 12.2667 2.86666C12.9637 3.44596 13.5358 4.16076 13.9484 4.96775C14.3609 5.77473 14.6053 6.65709 14.6667 7.56133V12.6667Z" fill="#18181B"/>
<path d="M5.33335 6.00001H8.00002C8.17683 6.00001 8.3464 5.92977 8.47142 5.80474C8.59645 5.67972 8.66669 5.51015 8.66669 5.33334C8.66669 5.15653 8.59645 4.98696 8.47142 4.86193C8.3464 4.73691 8.17683 4.66667 8.00002 4.66667H5.33335C5.15654 4.66667 4.98697 4.73691 4.86195 4.86193C4.73693 4.98696 4.66669 5.15653 4.66669 5.33334C4.66669 5.51015 4.73693 5.67972 4.86195 5.80474C4.98697 5.92977 5.15654 6.00001 5.33335 6.00001Z" fill="#18181B"/>
<path d="M10.6667 7.33333H5.33335C5.15654 7.33333 4.98697 7.40357 4.86195 7.52859C4.73693 7.65361 4.66669 7.82318 4.66669 7.99999C4.66669 8.17681 4.73693 8.34638 4.86195 8.4714C4.98697 8.59642 5.15654 8.66666 5.33335 8.66666H10.6667C10.8435 8.66666 11.0131 8.59642 11.1381 8.4714C11.2631 8.34638 11.3334 8.17681 11.3334 7.99999C11.3334 7.82318 11.2631 7.65361 11.1381 7.52859C11.0131 7.40357 10.8435 7.33333 10.6667 7.33333Z" fill="#18181B"/>
<path d="M10.6667 10H5.33335C5.15654 10 4.98697 10.0702 4.86195 10.1953C4.73693 10.3203 4.66669 10.4899 4.66669 10.6667C4.66669 10.8435 4.73693 11.013 4.86195 11.1381C4.98697 11.2631 5.15654 11.3333 5.33335 11.3333H10.6667C10.8435 11.3333 11.0131 11.2631 11.1381 11.1381C11.2631 11.013 11.3334 10.8435 11.3334 10.6667C11.3334 10.4899 11.2631 10.3203 11.1381 10.1953C11.0131 10.0702 10.8435 10 10.6667 10Z" fill="#18181B"/>
</g>
<defs>
<clipPath id="clip0_15_669">
<rect width="16" height="16" fill="white"/>
</clipPath>
</defs>
</svg>
