<svg width="16" height="16" viewBox="0 0 16 16" fill="none" xmlns="http://www.w3.org/2000/svg">
<g clip-path="url(#clip0_15_611)">
<path d="M12.6667 0.666656H3.33333C1.49533 0.666656 0 2.16199 0 3.99999V12C0 13.838 1.49533 15.3333 3.33333 15.3333H12.6667C14.5047 15.3333 16 13.838 16 12V3.99999C16 2.16199 14.5047 0.666656 12.6667 0.666656ZM3.33333 1.99999H12.6667C13.7693 1.99999 14.6667 2.89732 14.6667 3.99999V5.33332H1.33333V3.99999C1.33333 2.89732 2.23067 1.99999 3.33333 1.99999ZM12.6667 14H3.33333C2.23067 14 1.33333 13.1027 1.33333 12V6.66666H14.6667V12C14.6667 13.1027 13.7693 14 12.6667 14ZM2 3.66666C2 3.11466 2.448 2.66666 3 2.66666C3.552 2.66666 4 3.11466 4 3.66666C4 4.21866 3.552 4.66666 3 4.66666C2.448 4.66666 2 4.21866 2 3.66666ZM4.66667 3.66666C4.66667 3.11466 5.11467 2.66666 5.66667 2.66666C6.21867 2.66666 6.66667 3.11466 6.66667 3.66666C6.66667 4.21866 6.21867 4.66666 5.66667 4.66666C5.11467 4.66666 4.66667 4.21866 4.66667 3.66666ZM7.138 10.7193C7.39867 10.98 7.39867 11.4013 7.138 11.662L5.81667 12.9833C5.582 13.218 5.27733 13.3353 4.97267 13.3353C4.67867 13.3353 4.384 13.226 4.15267 13.0067L3.37733 12.2713C3.11 12.0187 3.09867 11.596 3.352 11.3293C3.60533 11.062 4.02733 11.0507 4.294 11.304L4.97067 11.944L6.196 10.7187C6.45667 10.458 6.878 10.458 7.13867 10.7187L7.138 10.7193ZM12.6667 12C12.6667 12.3687 12.3687 12.6667 12 12.6667H9.33333C8.96467 12.6667 8.66667 12.3687 8.66667 12C8.66667 11.6313 8.96467 11.3333 9.33333 11.3333H12C12.3687 11.3333 12.6667 11.6313 12.6667 12ZM7.138 7.38599C7.39867 7.64666 7.39867 8.06799 7.138 8.32866L5.81667 9.64999C5.582 9.88466 5.27733 10.002 4.97267 10.002C4.67867 10.002 4.384 9.89266 4.15267 9.67332L3.37733 8.93799C3.11 8.68532 3.09867 8.26332 3.352 7.99599C3.60533 7.72799 4.02733 7.71732 4.294 7.96999L4.97067 8.60999L6.196 7.38466C6.45667 7.12399 6.878 7.12399 7.13867 7.38466L7.138 7.38599ZM12.6667 8.66666C12.6667 9.03532 12.3687 9.33332 12 9.33332H9.33333C8.96467 9.33332 8.66667 9.03532 8.66667 8.66666C8.66667 8.29799 8.96467 7.99999 9.33333 7.99999H12C12.3687 7.99999 12.6667 8.29866 12.6667 8.66666Z" fill="#18181B"/>
</g>
<defs>
<clipPath id="clip0_15_611">
<rect width="16" height="16" fill="white"/>
</clipPath>
</defs>
</svg>
