<svg width="44" height="44" viewBox="0 0 44 44" fill="none" xmlns="http://www.w3.org/2000/svg">
<rect width="44" height="44" rx="8" fill="white"/>
<path fill-rule="evenodd" clip-rule="evenodd" d="M14.5 16C13.9477 16 13.5 16.4477 13.5 17C13.5 17.5523 13.9477 18 14.5 18H14.5083C15.0606 18 15.5083 17.5523 15.5083 17C15.5083 16.4477 15.0606 16 14.5083 16H14.5ZM18.6663 16C18.114 16 17.6663 16.4477 17.6663 17C17.6663 17.5523 18.114 18 18.6663 18H29.4996C30.0519 18 30.4996 17.5523 30.4996 17C30.4996 16.4477 30.0519 16 29.4996 16H18.6663ZM18.6663 21C18.114 21 17.6663 21.4477 17.6663 22C17.6663 22.5523 18.114 23 18.6663 23H29.4996C30.0519 23 30.4996 22.5523 30.4996 22C30.4996 21.4477 30.0519 21 29.4996 21H18.6663ZM17.6663 27C17.6663 26.4477 18.114 26 18.6663 26H29.4996C30.0519 26 30.4996 26.4477 30.4996 27C30.4996 27.5523 30.0519 28 29.4996 28H18.6663C18.114 28 17.6663 27.5523 17.6663 27ZM13.5 22C13.5 21.4477 13.9477 21 14.5 21H14.5083C15.0606 21 15.5083 21.4477 15.5083 22C15.5083 22.5523 15.0606 23 14.5083 23H14.5C13.9477 23 13.5 22.5523 13.5 22ZM14.5 26C13.9477 26 13.5 26.4477 13.5 27C13.5 27.5523 13.9477 28 14.5 28H14.5083C15.0606 28 15.5083 27.5523 15.5083 27C15.5083 26.4477 15.0606 26 14.5083 26H14.5Z" fill="#18181B"/>
</svg>
