<svg width="44" height="44" viewBox="0 0 44 44" fill="none" xmlns="http://www.w3.org/2000/svg">
<rect width="44" height="44" rx="8" fill="white"/>
<path d="M27.8333 21.1667H19.5L22.2417 18.425C22.3198 18.3475 22.3818 18.2554 22.4241 18.1538C22.4664 18.0523 22.4882 17.9433 22.4882 17.8333C22.4882 17.7233 22.4664 17.6144 22.4241 17.5128C22.3818 17.4113 22.3198 17.3191 22.2417 17.2417C22.0855 17.0864 21.8743 16.9993 21.6542 16.9993C21.434 16.9993 21.2228 17.0864 21.0667 17.2417L17.4917 20.825C17.1787 21.1361 17.0019 21.5587 17 22C17.0041 22.4384 17.1807 22.8576 17.4917 23.1667L21.0667 26.75C21.1444 26.8271 21.2365 26.8882 21.3378 26.9298C21.4391 26.9713 21.5476 26.9925 21.6571 26.9921C21.7666 26.9917 21.875 26.9698 21.976 26.9275C22.077 26.8853 22.1687 26.8235 22.2458 26.7458C22.323 26.6681 22.3841 26.576 22.4256 26.4747C22.4672 26.3734 22.4884 26.2649 22.488 26.1554C22.4876 26.0459 22.4656 25.9375 22.4234 25.8365C22.3811 25.7355 22.3194 25.6438 22.2417 25.5667L19.5 22.8333H27.8333C28.0543 22.8333 28.2663 22.7455 28.4226 22.5892C28.5789 22.433 28.6667 22.221 28.6667 22C28.6667 21.779 28.5789 21.567 28.4226 21.4107C28.2663 21.2545 28.0543 21.1667 27.8333 21.1667Z" fill="#18181B"/>
</svg>
