<svg width="12" height="10" viewBox="0 0 12 10" fill="none" xmlns="http://www.w3.org/2000/svg">
<path d="M10.8333 4.16666H2.5L5.24167 1.42499C5.31977 1.34752 5.38177 1.25535 5.42408 1.1538C5.46638 1.05225 5.48817 0.943332 5.48817 0.833322C5.48817 0.723312 5.46638 0.614391 5.42408 0.512842C5.38177 0.411292 5.31977 0.319125 5.24167 0.241656C5.08553 0.0864466 4.87432 -0.000671387 4.65417 -0.000671387C4.43401 -0.000671387 4.2228 0.0864466 4.06667 0.241656L0.491667 3.82499C0.178677 4.13611 0.00186066 4.55868 0 4.99999C0.00405549 5.43841 0.180704 5.85757 0.491667 6.16666L4.06667 9.74999C4.14437 9.82714 4.2365 9.88823 4.33781 9.92978C4.43912 9.97132 4.54762 9.99251 4.65711 9.99212C4.76661 9.99173 4.87496 9.96978 4.97597 9.92752C5.07698 9.88526 5.16868 9.82352 5.24583 9.74582C5.32299 9.66812 5.38408 9.57599 5.42562 9.47468C5.46717 9.37337 5.48835 9.26487 5.48796 9.15538C5.48758 9.04588 5.46563 8.93753 5.42337 8.83652C5.38111 8.73551 5.31937 8.64381 5.24167 8.56666L2.5 5.83332H10.8333C11.0543 5.83332 11.2663 5.74552 11.4226 5.58924C11.5789 5.43296 11.6667 5.221 11.6667 4.99999C11.6667 4.77898 11.5789 4.56701 11.4226 4.41073C11.2663 4.25445 11.0543 4.16666 10.8333 4.16666Z" fill="#18181B"/>
</svg>
