<svg width="180" height="12" viewBox="0 0 180 12" fill="none" xmlns="http://www.w3.org/2000/svg">
<path d="M13.3543 8.00571L15.96 0H19.0286L14.6914 12H12.1371L9.51429 4.32L6.89143 12H4.33714L0 0H3.22286L5.84572 7.98857L8.46857 0H10.68L13.3543 8.00571Z" fill="#18181B"/>
<path d="M28.3329 12H22.8129C20.55 12 19.4871 10.9543 19.4871 8.67429V3.32571C19.4871 1.04571 20.55 0 22.8129 0H28.3329C30.5957 0 31.6586 1.04571 31.6586 3.32571V8.67429C31.6586 10.9543 30.5957 12 28.3329 12ZM23.8414 9.49714H27.3043C28.35 9.49714 28.71 9.12 28.71 8.09143V3.90857C28.71 2.88 28.35 2.50286 27.3043 2.50286H23.8414C22.8129 2.50286 22.4357 2.88 22.4357 3.90857V8.09143C22.4357 9.12 22.8129 9.49714 23.8414 9.49714Z" fill="#18181B"/>
<path d="M42.2479 7.59429L45.2479 12H42.025L39.2479 7.81714H36.3679V12H33.4193V0H41.7508C43.8593 0 44.7336 0.857143 44.7336 2.98286V4.62857C44.7336 6.56571 43.9793 7.45714 42.2479 7.59429ZM40.6022 2.19429H36.3679V5.69143H40.6022C41.5108 5.69143 41.785 5.4 41.785 4.49143V3.39429C41.785 2.48571 41.5108 2.19429 40.6022 2.19429Z" fill="#18181B"/>
<path d="M52.8521 5.77714L58.7664 12H54.8235L49.5264 6.15429V12H46.5778V0H49.5264V5.55429L54.7378 0H58.6978L52.8521 5.77714Z" fill="#18181B"/>
<path d="M67.7079 12H62.1879C59.925 12 58.8621 10.9543 58.8621 8.67429V3.32571C58.8621 1.04571 59.925 0 62.1879 0H67.7079C69.9707 0 71.0336 1.04571 71.0336 3.32571V8.67429C71.0336 10.9543 69.9707 12 67.7079 12ZM63.2164 9.49714H66.6793C67.725 9.49714 68.085 9.12 68.085 8.09143V3.90857C68.085 2.88 67.725 2.50286 66.6793 2.50286H63.2164C62.1879 2.50286 61.8107 2.88 61.8107 3.90857V8.09143C61.8107 9.12 62.1879 9.49714 63.2164 9.49714Z" fill="#18181B"/>
<path d="M81.9486 7.64571V0H84.7943V12H82.4286L75.64 4.2V12H72.7943V0H75.2972L81.9486 7.64571Z" fill="#18181B"/>
</svg>
