<svg width="16" height="16" viewBox="0 0 16 16" fill="none" xmlns="http://www.w3.org/2000/svg">
<g clip-path="url(#clip0_15_629)">
<path d="M15.8044 14.862L13.4444 12.502C13.7937 11.9747 13.9997 11.3447 13.9997 10.6667C13.9997 8.82867 12.5044 7.33333 10.6664 7.33333C8.82836 7.33333 7.33302 8.82867 7.33302 10.6667C7.33302 12.5047 8.82836 14 10.6664 14C11.3444 14 11.9744 13.794 12.5017 13.4447L14.8617 15.8047C14.9917 15.9347 15.1624 16 15.333 16C15.5037 16 15.6744 15.9347 15.8044 15.8047C16.065 15.544 16.065 15.1227 15.8044 14.862ZM8.66636 10.6667C8.66636 9.564 9.56369 8.66667 10.6664 8.66667C11.769 8.66667 12.6664 9.564 12.6664 10.6667C12.6664 11.7693 11.769 12.6667 10.6664 12.6667C9.56369 12.6667 8.66636 11.7693 8.66636 10.6667ZM9.99969 4C9.99969 1.794 8.20569 0 5.99969 0C3.79369 0 1.99969 1.794 1.99969 4C1.99969 6.206 3.79369 8 5.99969 8C8.20569 8 9.99969 6.206 9.99969 4ZM5.99969 6.66667C4.52902 6.66667 3.33302 5.47067 3.33302 4C3.33302 2.52933 4.52902 1.33333 5.99969 1.33333C7.47036 1.33333 8.66636 2.52933 8.66636 4C8.66636 5.47067 7.47036 6.66667 5.99969 6.66667ZM5.99436 9.95867C6.03969 10.324 5.78102 10.6567 5.41502 10.7027C3.08769 10.9933 1.33236 12.9833 1.33236 15.3333C1.33236 15.7013 1.03369 16 0.66569 16C0.29769 16 -0.000976562 15.7013 -0.000976562 15.3333C-0.000976562 12.3127 2.25636 9.75333 5.24969 9.38C5.61102 9.334 5.94769 9.59333 5.99369 9.95933L5.99436 9.95867Z" fill="#18181B"/>
</g>
<defs>
<clipPath id="clip0_15_629">
<rect width="16" height="16" fill="white"/>
</clipPath>
</defs>
</svg>
