<svg width="16" height="16" viewBox="0 0 16 16" fill="none" xmlns="http://www.w3.org/2000/svg">
<g clip-path="url(#clip0_15_699)">
<path d="M7.99998 5.33333C7.47256 5.33333 6.95699 5.48973 6.51846 5.78275C6.07993 6.07576 5.73814 6.49224 5.5363 6.97951C5.33447 7.46678 5.28166 8.00296 5.38455 8.52024C5.48745 9.03752 5.74142 9.51268 6.11436 9.88562C6.4873 10.2586 6.96246 10.5125 7.47974 10.6154C7.99702 10.7183 8.5332 10.6655 9.02047 10.4637C9.50774 10.2618 9.92422 9.92005 10.2172 9.48152C10.5103 9.04299 10.6666 8.52742 10.6666 8C10.6666 7.29276 10.3857 6.61448 9.8856 6.11438C9.3855 5.61428 8.70723 5.33333 7.99998 5.33333ZM7.99998 9.33333C7.73627 9.33333 7.47849 9.25513 7.25922 9.10863C7.03996 8.96212 6.86906 8.75388 6.76814 8.51024C6.66722 8.26661 6.64082 7.99852 6.69227 7.73988C6.74371 7.48124 6.8707 7.24366 7.05717 7.05719C7.24364 6.87072 7.48122 6.74373 7.73986 6.69229C7.9985 6.64084 8.26659 6.66724 8.51023 6.76816C8.75386 6.86908 8.9621 7.03997 9.10861 7.25924C9.25512 7.47851 9.33331 7.73629 9.33331 8C9.33331 8.35362 9.19284 8.69276 8.94279 8.94281C8.69274 9.19286 8.3536 9.33333 7.99998 9.33333Z" fill="#18181B"/>
<path d="M14.196 9.26667L13.9 9.096C14.0333 8.37096 14.0333 7.62771 13.9 6.90267L14.196 6.732C14.4237 6.60068 14.6232 6.42581 14.7832 6.21737C14.9433 6.00894 15.0607 5.77103 15.1288 5.51721C15.1969 5.2634 15.2143 4.99866 15.1801 4.73811C15.1459 4.47755 15.0607 4.22629 14.9294 3.99867C14.798 3.77104 14.6232 3.57151 14.4147 3.41147C14.2063 3.25143 13.9684 3.134 13.7146 3.06591C13.4608 2.99781 13.196 2.98037 12.9355 3.01459C12.6749 3.04881 12.4237 3.13401 12.196 3.26533L11.8994 3.43667C11.3391 2.95795 10.6951 2.58683 10 2.342V2C10 1.46957 9.78932 0.960859 9.41424 0.585786C9.03917 0.210714 8.53046 0 8.00003 0C7.4696 0 6.96089 0.210714 6.58581 0.585786C6.21074 0.960859 6.00003 1.46957 6.00003 2V2.342C5.30495 2.58771 4.66126 2.95973 4.10136 3.43933L3.80336 3.26667C3.34365 3.00145 2.79742 2.92971 2.28482 3.06724C1.77222 3.20477 1.33525 3.54029 1.07003 4C0.804812 4.45971 0.733077 5.00595 0.870603 5.51855C1.00813 6.03114 1.34365 6.46812 1.80336 6.73333L2.09936 6.904C1.9661 7.62904 1.9661 8.37229 2.09936 9.09733L1.80336 9.268C1.34365 9.53322 1.00813 9.97019 0.870603 10.4828C0.733077 10.9954 0.804812 11.5416 1.07003 12.0013C1.33525 12.461 1.77222 12.7966 2.28482 12.9341C2.79742 13.0716 3.34365 12.9999 3.80336 12.7347L4.10003 12.5633C4.66054 13.0421 5.30468 13.4132 6.00003 13.658V14C6.00003 14.5304 6.21074 15.0391 6.58581 15.4142C6.96089 15.7893 7.4696 16 8.00003 16C8.53046 16 9.03917 15.7893 9.41424 15.4142C9.78932 15.0391 10 14.5304 10 14V13.658C10.6951 13.4123 11.3388 13.0403 11.8987 12.5607L12.1967 12.7327C12.6564 12.9979 13.2026 13.0696 13.7152 12.9321C14.2278 12.7946 14.6648 12.459 14.93 11.9993C15.1952 11.5396 15.267 10.9934 15.1295 10.4808C14.9919 9.96819 14.6564 9.53122 14.1967 9.266L14.196 9.26667ZM12.4974 6.74933C12.7231 7.56738 12.7231 8.43129 12.4974 9.24933C12.4579 9.39171 12.4669 9.54316 12.5229 9.67987C12.5789 9.81659 12.6787 9.93084 12.8067 10.0047L13.5294 10.422C13.6826 10.5104 13.7944 10.6561 13.8402 10.8269C13.886 10.9977 13.8621 11.1798 13.7737 11.333C13.6853 11.4862 13.5396 11.598 13.3688 11.6438C13.198 11.6897 13.0159 11.6657 12.8627 11.5773L12.1387 11.1587C12.0106 11.0845 11.8615 11.055 11.7149 11.075C11.5682 11.0949 11.4323 11.163 11.3287 11.2687C10.7353 11.8744 9.98775 12.3067 9.1667 12.5187C9.02338 12.5555 8.8964 12.639 8.80576 12.7559C8.71511 12.8729 8.66596 13.0167 8.66603 13.1647V14C8.66603 14.1768 8.59579 14.3464 8.47077 14.4714C8.34574 14.5964 8.17617 14.6667 7.99936 14.6667C7.82255 14.6667 7.65298 14.5964 7.52796 14.4714C7.40293 14.3464 7.3327 14.1768 7.3327 14V13.1653C7.33277 13.0174 7.28361 12.8736 7.19297 12.7566C7.10232 12.6397 6.97534 12.5562 6.83203 12.5193C6.01093 12.3065 5.26358 11.8733 4.6707 11.2667C4.56704 11.161 4.43119 11.0929 4.28453 11.073C4.13788 11.053 3.98877 11.0825 3.8607 11.1567L3.13803 11.5747C3.06218 11.6191 2.97829 11.6482 2.89118 11.6601C2.80407 11.672 2.71546 11.6665 2.63046 11.6441C2.54546 11.6216 2.46575 11.5825 2.39591 11.5291C2.32607 11.4757 2.26748 11.409 2.22352 11.3329C2.17956 11.2567 2.15109 11.1727 2.13976 11.0855C2.12843 10.9983 2.13445 10.9097 2.15749 10.8249C2.18052 10.74 2.22012 10.6606 2.27398 10.5911C2.32785 10.5216 2.39493 10.4635 2.47136 10.42L3.19403 10.0027C3.32199 9.92884 3.42181 9.81459 3.4778 9.67787C3.53379 9.54116 3.54278 9.38972 3.50336 9.24733C3.2776 8.42929 3.2776 7.56538 3.50336 6.74733C3.54207 6.60525 3.53265 6.45436 3.47657 6.31819C3.42049 6.18203 3.32091 6.06827 3.19336 5.99467L2.4707 5.57733C2.31749 5.48893 2.20568 5.34328 2.15985 5.17244C2.11403 5.00159 2.13796 4.81954 2.22636 4.66633C2.31477 4.51313 2.46041 4.40131 2.63126 4.35549C2.8021 4.30967 2.98416 4.33359 3.13736 4.422L3.86136 4.84067C3.98908 4.91501 4.13788 4.94481 4.28438 4.92538C4.43088 4.90595 4.56677 4.8384 4.6707 4.73333C5.26409 4.12756 6.01165 3.69535 6.8327 3.48333C6.97645 3.44638 7.10376 3.3625 7.19445 3.245C7.28514 3.1275 7.33403 2.98309 7.33336 2.83467V2C7.33336 1.82319 7.4036 1.65362 7.52862 1.5286C7.65365 1.40357 7.82322 1.33333 8.00003 1.33333C8.17684 1.33333 8.34641 1.40357 8.47143 1.5286C8.59646 1.65362 8.6667 1.82319 8.6667 2V2.83467C8.66662 2.98264 8.71578 3.12643 8.80643 3.24339C8.89707 3.36035 9.02405 3.44382 9.16736 3.48067C9.9887 3.69343 10.7363 4.12659 11.3294 4.73333C11.433 4.83898 11.5689 4.90713 11.7155 4.92704C11.8622 4.94696 12.0113 4.91751 12.1394 4.84333L12.862 4.42533C12.9379 4.38087 13.0218 4.35185 13.1089 4.33993C13.196 4.32802 13.2846 4.33346 13.3696 4.35593C13.4546 4.37841 13.5343 4.41747 13.6041 4.47088C13.674 4.52428 13.7326 4.59097 13.7765 4.66712C13.8205 4.74326 13.849 4.82734 13.8603 4.91453C13.8716 5.00171 13.8656 5.09028 13.8426 5.17513C13.8195 5.25998 13.7799 5.33943 13.7261 5.40892C13.6722 5.4784 13.6051 5.53655 13.5287 5.58L12.806 5.99733C12.6787 6.07114 12.5794 6.18498 12.5236 6.32113C12.4678 6.45727 12.4585 6.60807 12.4974 6.75V6.74933Z" fill="#18181B"/>
</g>
<defs>
<clipPath id="clip0_15_699">
<rect width="16" height="16" fill="white"/>
</clipPath>
</defs>
</svg>
