<svg width="16" height="16" viewBox="0 0 16 16" fill="none" xmlns="http://www.w3.org/2000/svg">
<g clip-path="url(#clip0_15_691)">
<path d="M15.8907 5.86266C15.7543 5.4286 15.4819 5.04994 15.1136 4.78269C14.7454 4.51543 14.301 4.37378 13.846 4.37866H10.9333L10.0487 1.62133C9.90955 1.1873 9.63618 0.808673 9.26799 0.540041C8.89979 0.271409 8.45578 0.126656 8.00001 0.126656C7.54423 0.126656 7.10023 0.271409 6.73203 0.540041C6.36383 0.808673 6.09046 1.1873 5.95134 1.62133L5.06667 4.37866H2.15401C1.7005 4.37931 1.2588 4.52325 0.891993 4.78993C0.525185 5.05661 0.252034 5.43239 0.111554 5.86359C-0.0289254 6.29479 -0.0295472 6.75935 0.109778 7.19092C0.249102 7.6225 0.521247 7.999 0.88734 8.26666L3.25801 10L2.35667 12.7913C2.21101 13.2243 2.20917 13.6927 2.35141 14.1267C2.49366 14.5608 2.77237 14.9372 3.14601 15.2C3.51324 15.4712 3.95827 15.6165 4.41478 15.6142C4.87128 15.6119 5.31483 15.4622 5.67934 15.1873L8.00001 13.4793L10.3213 15.1853C10.6879 15.455 11.1305 15.6014 11.5856 15.6036C12.0406 15.6059 12.4847 15.4637 12.8538 15.1977C13.223 14.9316 13.4983 14.5554 13.6402 14.123C13.7821 13.6906 13.7832 13.2244 13.6433 12.7913L12.742 10L15.1153 8.26666C15.4856 8.00236 15.761 7.62586 15.9006 7.19289C16.0402 6.75992 16.0368 6.2935 15.8907 5.86266ZM14.3287 7.19L11.566 9.20933C11.4525 9.29211 11.3681 9.40861 11.3248 9.54222C11.2814 9.67583 11.2814 9.81971 11.3247 9.95333L12.3747 13.2C12.4278 13.3647 12.4274 13.5419 12.3734 13.7063C12.3194 13.8707 12.2147 14.0138 12.0743 14.1149C11.9339 14.216 11.765 14.2701 11.592 14.2692C11.419 14.2683 11.2507 14.2126 11.1113 14.11L8.39467 12.11C8.28025 12.0259 8.14198 11.9806 8.00001 11.9806C7.85803 11.9806 7.71976 12.0259 7.60534 12.11L4.88867 14.11C4.74939 14.2139 4.58063 14.2708 4.40685 14.2724C4.23307 14.274 4.0633 14.2202 3.92216 14.1188C3.78102 14.0174 3.67584 13.8737 3.62187 13.7085C3.5679 13.5433 3.56795 13.3652 3.62201 13.2L4.67534 9.95333C4.71862 9.81971 4.71859 9.67583 4.67525 9.54222C4.63191 9.40861 4.54748 9.29211 4.43401 9.20933L1.67134 7.19C1.53221 7.08813 1.42883 6.94489 1.37597 6.78076C1.32311 6.61662 1.32347 6.43998 1.377 6.27606C1.43053 6.11214 1.53449 5.96933 1.67403 5.86803C1.81358 5.76673 1.98157 5.71212 2.15401 5.712H5.55401C5.69515 5.71199 5.83265 5.66719 5.94671 5.58405C6.06076 5.5009 6.14548 5.3837 6.18867 5.24933L7.22201 2.02866C7.27505 1.86385 7.37901 1.72012 7.51894 1.61816C7.65887 1.5162 7.82754 1.46127 8.00067 1.46127C8.17381 1.46127 8.34248 1.5162 8.4824 1.61816C8.62233 1.72012 8.7263 1.86385 8.77934 2.02866L9.81267 5.24933C9.85586 5.3837 9.94059 5.5009 10.0546 5.58405C10.1687 5.66719 10.3062 5.71199 10.4473 5.712H13.8473C14.0198 5.71212 14.1878 5.76673 14.3273 5.86803C14.4669 5.96933 14.5708 6.11214 14.6243 6.27606C14.6779 6.43998 14.6782 6.61662 14.6254 6.78076C14.5725 6.94489 14.4691 7.08813 14.33 7.19H14.3287Z" fill="#18181B"/>
</g>
<defs>
<clipPath id="clip0_15_691">
<rect width="16" height="16" fill="white"/>
</clipPath>
</defs>
</svg>
