<svg width="16" height="16" viewBox="0 0 16 16" fill="none" xmlns="http://www.w3.org/2000/svg">
<g clip-path="url(#clip0_15_683)">
<path d="M4.66667 9.33333C6.14 9.33333 7.33333 8.14 7.33333 6.66667C7.33333 5.19333 6.14 4 4.66667 4C3.19333 4 2 5.19333 2 6.66667C2 8.14 3.19333 9.33333 4.66667 9.33333ZM4.66667 5.33333C5.4 5.33333 6 5.93333 6 6.66667C6 7.4 5.4 8 4.66667 8C3.93333 8 3.33333 7.4 3.33333 6.66667C3.33333 5.93333 3.93333 5.33333 4.66667 5.33333ZM9.33333 15.3333C9.33333 15.7 9.03333 16 8.66667 16C8.3 16 8 15.7 8 15.3333C8 13.4933 6.50667 12 4.66667 12C2.82667 12 1.33333 13.4933 1.33333 15.3333C1.33333 15.7 1.03333 16 0.666667 16C0.3 16 0 15.7 0 15.3333C0 12.76 2.09333 10.6667 4.66667 10.6667C7.24 10.6667 9.33333 12.76 9.33333 15.3333ZM16 3.33333V8.66667C16 10.5067 14.5067 12 12.6667 12H10C9.63333 12 9.33333 11.7 9.33333 11.3333C9.33333 10.9667 9.63333 10.6667 10 10.6667H12.6667C13.7667 10.6667 14.6667 9.76667 14.6667 8.66667V3.33333C14.6667 2.23333 13.7667 1.33333 12.6667 1.33333H6.30667C5.59333 1.33333 4.93333 1.72 4.57333 2.33333C4.38667 2.65333 3.98 2.76 3.66 2.58C3.34 2.39333 3.23333 1.98667 3.42 1.66667C4.02 0.64 5.12667 0 6.30667 0H12.6667C14.5067 0 16 1.49333 16 3.33333ZM9.11333 7.28L11.06 5.33333H10C9.63333 5.33333 9.33333 5.03333 9.33333 4.66667C9.33333 4.3 9.63333 4 10 4H12C12.7333 4 13.3333 4.6 13.3333 5.33333V7.33333C13.3333 7.7 13.0333 8 12.6667 8C12.3 8 12 7.7 12 7.33333V6.27333L10.0533 8.22C9.74667 8.52667 9.33333 8.69333 8.91333 8.69333C8.76667 8.69333 8.62 8.67333 8.47333 8.63333C8.12 8.53333 7.91333 8.16667 8.01333 7.81333C8.11333 7.46 8.48 7.25333 8.84 7.35333C8.92 7.37333 9.02667 7.36667 9.11333 7.28Z" fill="#18181B"/>
</g>
<defs>
<clipPath id="clip0_15_683">
<rect width="16" height="16" fill="white"/>
</clipPath>
</defs>
</svg>
