<svg width="12" height="11" viewBox="0 0 12 11" fill="none" xmlns="http://www.w3.org/2000/svg">
<path d="M11.0729 0.572478C10.8929 0.419838 10.6102 0.397998 10.3178 0.515358H10.3174C10.0099 0.638718 1.61472 4.23968 1.27296 4.3868C1.2108 4.4084 0.667921 4.61096 0.723841 5.06216C0.773761 5.46896 1.21008 5.63744 1.26336 5.65688L3.39768 6.38768C3.53928 6.85904 4.06128 8.59808 4.17672 8.9696C4.24872 9.2012 4.36608 9.50552 4.57176 9.56816C4.75224 9.63776 4.93176 9.57416 5.04792 9.48296L6.3528 8.27264L8.45928 9.91544L8.50944 9.94544C8.65248 10.0088 8.78952 10.0405 8.92032 10.0405C9.02136 10.0405 9.11832 10.0215 9.21096 9.9836C9.52656 9.854 9.6528 9.55328 9.666 9.5192L11.2394 1.34072C11.3354 0.903918 11.202 0.681678 11.0729 0.572478ZM5.28 6.68L4.56 8.6L3.84 6.2L9.36 2.12L5.28 6.68Z" fill="#747476"/>
</svg>
