<svg width="12" height="12" viewBox="0 0 12 12" fill="none" xmlns="http://www.w3.org/2000/svg">
<path d="M11.0729 1.57248C10.8929 1.41984 10.6102 1.398 10.3178 1.51536H10.3174C10.0099 1.63872 1.61472 5.23968 1.27296 5.3868C1.2108 5.4084 0.667921 5.61096 0.723841 6.06216C0.773761 6.46896 1.21008 6.63744 1.26336 6.65688L3.39768 7.38768C3.53928 7.85904 4.06128 9.59808 4.17672 9.9696C4.24872 10.2012 4.36608 10.5055 4.57176 10.5682C4.75224 10.6378 4.93176 10.5742 5.04792 10.483L6.3528 9.27264L8.45928 10.9154L8.50944 10.9454C8.65248 11.0088 8.78952 11.0405 8.92032 11.0405C9.02136 11.0405 9.11832 11.0215 9.21096 10.9836C9.52656 10.854 9.6528 10.5533 9.666 10.5192L11.2394 2.34072C11.3354 1.90392 11.202 1.68168 11.0729 1.57248ZM5.28 7.68L4.56 9.6L3.84 7.2L9.36 3.12L5.28 7.68Z" fill="#747476"/>
</svg>
