<svg width="12" height="12" viewBox="0 0 12 12" fill="none" xmlns="http://www.w3.org/2000/svg">
<g clip-path="url(#clip0_118_228)">
<path fill-rule="evenodd" clip-rule="evenodd" d="M10.2315 1.744C9.1085 0.62 7.6155 0.0005 6.025 0C2.7475 0 0.0799996 2.667 0.0784996 5.946C0.0779996 6.994 0.352 8.017 0.8725 8.919L0.0284996 12L3.1805 11.173C4.049 11.647 5.027 11.8965 6.022 11.897H6.0245C9.3015 11.897 11.9695 9.2295 11.971 5.9505C11.972 4.362 11.354 2.8675 10.2315 1.744ZM6.025 10.8925H6.023C5.136 10.8925 4.2665 10.654 3.5075 10.2035L3.327 10.0965L1.4565 10.587L1.956 8.763L1.8385 8.576C1.3435 7.789 1.0825 6.8795 1.083 5.946C1.084 3.221 3.3015 1.004 6.0275 1.004C7.3475 1.004 8.5885 1.519 9.5215 2.453C10.4545 3.3875 10.968 4.629 10.9675 5.9495C10.966 8.6755 8.749 10.8925 6.025 10.8925ZM8.736 7.191C8.5875 7.1165 7.857 6.757 7.7205 6.7075C7.5845 6.658 7.4855 6.633 7.386 6.7815C7.2865 6.93 7.0025 7.265 6.9155 7.3645C6.829 7.4635 6.742 7.476 6.5935 7.4015C6.445 7.327 5.966 7.1705 5.3985 6.664C4.957 6.27 4.6585 5.7835 4.572 5.6345C4.4855 5.4855 4.563 5.4055 4.637 5.3315C4.704 5.265 4.7855 5.158 4.86 5.071C4.935 4.985 4.9595 4.923 5.0095 4.8235C5.059 4.7245 5.0345 4.6375 4.997 4.563C4.9595 4.489 4.6625 3.7575 4.539 3.46C4.4185 3.17 4.296 3.2095 4.2045 3.205C4.118 3.2005 4.019 3.2 3.9195 3.2C3.8205 3.2 3.6595 3.237 3.5235 3.386C3.3875 3.535 3.0035 3.8945 3.0035 4.6255C3.0035 5.357 3.536 6.0635 3.61 6.1625C3.684 6.2615 4.6575 7.7625 6.148 8.406C6.5025 8.559 6.7795 8.6505 6.995 8.719C7.351 8.832 7.675 8.816 7.931 8.778C8.2165 8.7355 8.81 8.4185 8.934 8.0715C9.058 7.7245 9.058 7.4265 9.0205 7.365C8.9835 7.3025 8.8845 7.2655 8.736 7.191Z" fill="#747476"/>
</g>
<defs>
<clipPath id="clip0_118_228">
<rect width="12" height="12" fill="white"/>
</clipPath>
</defs>
</svg>
